<svg height="1024" preserveAspectRatio="none" viewBox="0 0 1024 1024" width="1024" xmlns="http://www.w3.org/2000/svg"><path d="m969.6 351.25q-8.6-20.85-19.4-40.85-6.1-11.35-12.9-22.4-29.35-47.55-71.55-89.8-138.25-138.25-333.8-138.25-195.5 0-333.75 138.25-138.25 138.25-138.25 333.75 0 195.55 138.25 333.8 138.25 138.2 333.75 138.2 195.55 0 333.8-138.2 76.15-76.2 110.35-169.75 27.85-76.25 27.85-164.05 0-67.35-16.4-127.95-1.85-6.85-3.9-13.6-6.15-19.95-14.05-39.15z" fill-opacity=".098039"/><path d="m969.7 392q-1.75-6.85-3.65-13.6-1.52421875-5.28554687-3.2-10.55-2.47128906-7.946875-5.25-15.8-9.75-27.55-23.15-53.65-5.8-11.35-12.3-22.4-30.65-52-76.35-97.75-109-109-253.65-132.05-24.5-3.9-50.05-5.35-14.9-.85-30.1-.85-14.1 0-27.9.75-177.55 9.2-305.85 137.5-138.25 138.25-138.25 333.75 0 195.55 138.25 333.8 84.79003906 84.75703125 191.1 117.55 54.53808594 16.81308594 114.75 19.95.2 0 .4 0 12.15.6 24.5.7 1.5 0 3 0 15.25 0 30.1-.8 3.5-.2 6.95-.45 30.05-2.15 58.7-7.7 11.8-2.3 23.4-5.15 120.6-30.05 214.65-124.1 72.9-72.95 107.35-161.8 27.75-71.6 30.55-153.5.3-9.2.3-18.5 0-1 0-2 0-.5 0-1-.35-61.3-14.3-117z" fill="#34495e"/><path d="m953.15 684q14.34492188-37.01269531 22-76.8l-401.65-401.65-325.4 520.5 257.9 257.9q1.50761719.03789063 3 .05 1.5 0 3 0 15.25 0 30.1-.8 3.5-.2 6.95-.45 30.05-2.15 58.7-7.7 11.8-2.3 23.4-5.15 120.6-30.05 214.65-124.1 72.9-72.95 107.35-161.8z" fill-opacity=".2"/><path d="m566.25 588q-54.25 32.6-108.5 0l44.4 236.75q.7 3.65 3.8 5.8 2.8 1.9 6.05 1.5 3.25.4 6.1-1.5 3.05-2.15 3.75-5.8z" fill="#4b77be"/><path d="m566.25 588 .6-3.15q.5-2.55-.5-5l-18.5-46.2q-23.6 9.5-47.2 6.65-10.6-1.25-21.15-5-1.75-.6-3.5-1.3l-18.35 45.85q-1 2.45-.5 5l.6 3.15q54.25 32.6 108.5 0z" fill="#89c4f4"/><path d="m506.95 460.8q-2.3 1.55-3.3 4.1l-27.65 69.1q1.75.7 3.5 1.3 10.55 3.75 21.15 5 23.6 2.85 47.2-6.65l-27.5-68.75q-1-2.55-3.3-4.1-2.3-1.55-5.05-1.55-2.75 0-5.05 1.55z" fill="#fff"/><path d="m418.15 588 57.15-140.2h-135.55l-57.1 140.2zm323.45 0-57.15-140.2h-135.5l57.15 140.2z" fill="#fabe58"/><path d="m232.65 710.6q-7.25 17.7 14.1 17.7h92.85q21.35 0 28.55-17.7l50-122.6h-135.5zm423.4 0q7.2 17.7 28.55 17.7h92.8q21.35 0 14.15-17.7l-49.95-122.6h-135.5z" fill="#fde3a7"/><path d="m627.3 307.6h-230.4l-57.15 140.2h135.55l36.8-90.3 36.85 90.3h135.5z" fill="#f03434"/><path d="m437.55 207.85-40.65 99.75h230.4l-40.65-99.75q-7.2-17.7-28.55-17.7h-92q-21.35 0-28.55 17.7z" fill="#c0392b"/></svg>